<svg xmlns="http://www.w3.org/2000/svg" xmlns:xlink="http://www.w3.org/1999/xlink" xmlns:inkscape="http://www.inkscape.org/namespaces/inkscape" version="1.1" viewBox="41.67 42.17 73.67 72.17">
<defs>
<clipPath id="clip_1">
<path transform="matrix(1,0,0,-1,0,160)" d="M0 160H160V0H0Z"/>
</clipPath>
<path id="font_2_10" d="M.08215332 0H.22946167V.23674011L.3021698 .3062439 .5137329 0H.6925354L.40544129 .4028778 .6824646 .6894226H.50393679C.41679383 .5903168 .27490235 .43489076 .22946167 .3817749V.6894226H.08215332V0Z"/>
<path id="font_2_9" d="M.08215332 0H.5576019L.574646 .122177127H.23121643V.6894226H.08215332V0Z"/>
<path id="font_2_8" d="M.46322633 .15924073 .51989749 0H.6766205L.4323883 .6894226H.24513245L.0110321049 0H.15757752L.21136475 .15924073H.46322633M.43115235 .2814331H.24269104C.2819214 .4057312 .31636048 .5138855 .33335877 .58184817H.33436585C.35099793 .5198822 .38220216 .42692567 .43115235 .2814331Z"/>
<path id="font_2_7" d="M.07286072 .6894226V.28320313C.07286072 .05290222 .20695496-.009765625 .3625641-.009765625 .51460269-.009765625 .65260317 .050308229 .65260317 .28604127V.6894226H.50341799V.27864076C.50341799 .15348816 .44985963 .10713196 .364563 .10713196 .2902069 .10713196 .22218323 .14633179 .22218323 .27864076V.6894226H.07286072Z"/>
<path id="font_2_6" d="M.08215332 0H.34924317C.5602112 0 .68756106 .15226746 .68756106 .35334779 .68756106 .55718997 .5563202 .6894226 .3555298 .6894226H.08215332V0M.23121643 .56900027H.34388734C.4788971 .56900027 .5336151 .46562196 .5336151 .35299684 .5336151 .21871948 .4751892 .12042236 .34300233 .12042236H.23121643V.56900027Z"/>
<path id="font_2_5" d="M.08215332 .6894226V0H.23121643V.6894226H.08215332Z"/>
<path id="font_2_4" d=""/>
<path id="font_2_3" d="M.032913209 .20207215C.049423219 .0763855 .14160156-.009765625 .3166046-.009765625 .49884034-.009765625 .59410098 .07658386 .59410098 .20248413 .59410098 .29968263 .5501251 .37428285 .34960938 .42152406 .23822022 .44735719 .2089386 .46679688 .2089386 .51474 .2089386 .5636902 .24545288 .5886841 .30595399 .5886841 .39483644 .5886841 .41830445 .5426178 .42549134 .5001831H.57569888C.56581118 .60102847 .4928894 .6994324 .30984498 .6994324 .14663697 .6994324 .056747438 .61782839 .056747438 .4976654 .056747438 .4045868 .103134158 .33633424 .29075624 .29229737 .4086609 .26486207 .44189454 .24050904 .44189454 .1843872 .44189454 .13392639 .40786744 .102493289 .3282776 .102493289 .24848938 .102493289 .19882202 .13284302 .18310547 .20207215H.032913209Z"/>
<path id="font_2_2" d="M.5174103 .21252442C.50442507 .17230225 .4737091 .10713196 .37643434 .10713196 .24320984 .10713196 .20202637 .22991944 .20202637 .34646607 .20202637 .4719391 .24949646 .58251956 .37243653 .58251956 .46614076 .58251956 .5031433 .52957156 .51753237 .47642518H.6666107C.649765 .59165957 .56077578 .6994324 .37719728 .6994324 .15470886 .6994324 .048065187 .5300751 .048065187 .34106446 .048065187 .14494324 .15142823-.009765625 .3700409-.009765625 .54267886-.009765625 .63964846 .08390808 .66737368 .21252442H.5174103Z"/>
<path id="font_2_1" d="M.08215332 .6894226V0H.23121643V.29833985H.50860598V0H.6576843V.6894226H.50860598V.42051698H.23121643V.6894226H.08215332Z"/>
</defs>
<g clip-path="url(#clip_1)">
<path transform="matrix(1,0,0,-1,84.11,99.54)" d="M0 0C-1.04 1.16-1.95 2.69-2.65 4.55-3.4 6.45-4.1 8.52-4.8 10.84-5.05 11.71-5.34 12.54-5.63 13.41-6.09 14.9-6.62 16.38-7.29 17.92-7.45 18.5-7.7 19.07-7.95 19.65-9.19 22.59-10.84 25.08-12.96 27.1-15.11 29.17-17.92 30.37-21.44 30.75L-8.86 46.06C-8.53 46.47-8.24 46.84-7.95 47.17-6.58 48.75-5.34 49.99-4.18 50.9-2.73 51.98-.95 52.76 1.12 53.22V53.96H-14.65V53.22C-12.62 53.22-11.05 52.89-9.89 52.27-8.73 51.64-8.15 50.78-8.15 49.62-8.15 48.58-8.69 47.42-9.77 46.06L-28.68 23.21V46.06C-28.68 48.21-28.31 49.82-27.56 50.9-26.86 52.02-25.62 52.76-23.84 53.22V53.96H-40.39V53.22C-38.57 52.76-37.33 52.02-36.63 50.9-35.88 49.82-35.55 48.21-35.55 46.06V4.55C-35.55 2.44-35.88 .82-36.63-.25-37.33-1.37-38.57-2.11-40.39-2.57V-3.31H-23.84V-2.57C-25.62-2.11-26.86-1.37-27.56-.25-28.31 .82-28.68 2.44-28.68 4.55V21.93C-25.87 25.41-23.96 27.64-23.05 28.72-22.64 29.26-22.18 29.55-21.69 29.55-21.31 29.55-20.94 29.46-20.57 29.26-18.46 28.14-16.89 26.23-15.85 23.54-14.78 20.9-13.87 17.92-13.12 14.69-12.75 13.11-12.33 11.56-11.87 10.05-11.86 10.03-11.86 10.01-11.85 9.99-11.75 9.67-11.65 9.36-11.55 9.05-11.54 9.03-11.53 9.01-11.53 8.99-11.23 8.17-10.83 7.25-10.29 6.29-9.43 4.76-8.53 3.65-7.95 3.06-5.92 .99-3.44-.62-.46-1.78 .91-2.28 2.32-2.69 3.72-2.98 4.59-3.15 5.47-3.28 6.37-3.36H6.57C6.21-3.03 5.86-2.69 5.5-2.36 4.67-2.24 3.89-1.99 3.1-1.66 2.03-1.53 1.07-1.12 .33-.29"/>
<path transform="matrix(1,0,0,-1,111.71,82.04)" d="M0 0C-.95 1.66-2.23 3.11-3.81 4.39-5.38 5.67-7.16 6.83-9.1 7.91-11.05 8.94-13.03 9.93-15.1 10.89-17.13 11.88-19.12 12.83-21.02 13.87-22.93 14.86-24.62 15.98-26.11 17.22-27.64 18.42-28.84 19.83-29.75 21.4-30.66 22.97-31.08 24.75-31.08 26.82-30.95 29.84-29.67 32.32-27.23 34.19-24.75 36.09-21.97 37.04-18.83 37.04-17.05 37.04-15.35 36.67-13.7 35.97-12 35.26-10.51 34.14-9.23 32.61-7.94 31.08-6.95 29.05-6.33 26.57-5.83 24.63-5.59 22.72-5.59 20.82-5.59 17.38-6.33 14.36-7.82 11.63H-6.95L.29 23.72C-.08 26.12-1.03 28.27-2.61 30.21-4.72 32.74-7.24 34.64-10.18 35.88-13.12 37.12-16.14 37.74-19.24 37.74-21.89 37.74-24.42 37.33-26.77 36.46-27.23 36.34-27.64 36.17-28.1 35.97-30.83 34.81-33.11 33.07-34.8 30.83-35.09 30.46-35.34 30.09-35.55 29.67-36.79 27.65-37.41 25.29-37.49 22.6-37.49 20.4-37 18.46-36.09 16.8-35.13 15.15-33.85 13.66-32.28 12.42-30.71 11.13-28.97 9.93-26.98 8.9-25.04 7.87-23.05 6.83-20.98 5.88-18.95 4.93-16.97 3.93-15.06 2.94-13.16 1.95-11.46 .83-9.97-.41-8.44-1.65-7.24-3.02-6.33-4.59-5.46-6.16-5.01-7.98-5.01-10.01-5.13-13.2-6.58-15.68-9.31-17.5-12.04-19.32-15.19-20.23-18.83-20.23-19.95-20.23-21.06-20.11-22.1-19.86-22.93-19.74-23.71-19.49-24.5-19.16-25.45-18.83-26.36-18.37-27.27-17.79-27.31-17.75-27.35-17.75-27.4-17.71-29.88-16.1-31.62-13.41-32.69-9.76-33.06-8.03-33.27-6.29-33.27-4.55-33.27-4.38-33.27-4.22-33.23-4.09-33.69-2.6-34.22-1.12-34.89 .42L-39.57-7.08C-39.54-7.2-39.51-7.32-39.47-7.45-39.46-7.47-39.46-7.49-39.45-7.51-39.35-7.83-39.25-8.14-39.15-8.45-39.14-8.47-39.13-8.49-39.13-8.51-38.83-9.33-38.43-10.25-37.89-11.21-37.03-12.74-36.13-13.85-35.55-14.44-33.52-16.51-31.04-18.12-28.06-19.28-26.69-19.78-25.28-20.19-23.88-20.48-23.01-20.65-22.13-20.78-21.23-20.86-20.41-20.94-19.58-20.98-18.75-20.98-15.35-20.98-12.08-20.36-9.02-19.2-5.96-18-3.48-16.26-1.57-14.03 .33-11.75 1.33-9.02 1.41-5.79 1.41-3.6 .91-1.65 0 0"/>
</g>
<use data-text="&#xfffd;" xlink:href="#font_2_10" transform="matrix(8.1882,0,0,-8.4,42.9717,112.21)"/>
<use data-text="&#xfffd;" xlink:href="#font_2_9" transform="matrix(8.1882,0,0,-8.4,48.56424,112.21)"/>
<use data-text="&#xfffd;" xlink:href="#font_2_8" transform="matrix(8.1882,0,0,-8.4,53.640928,112.21)"/>
<use data-text="&#xfffd;" xlink:href="#font_2_7" transform="matrix(8.1882,0,0,-8.4,59.09345,112.21)"/>
<use data-text="&#xfffd;" xlink:href="#font_2_6" transform="matrix(8.1882,0,0,-8.4,65.05446,112.21)"/>
<use data-text="&#xfffd;" xlink:href="#font_2_5" transform="matrix(8.1882,0,0,-8.4,71.08097,112.21)"/>
<use data-text="&#xfffd;" xlink:href="#font_2_8" transform="matrix(8.1882,0,0,-8.4,73.643878,112.21)"/>
<use data-text="&#xfffd;" xlink:href="#font_2_4" transform="matrix(8.1882,0,0,-8.4,79.27736,112.21)"/>
<use data-text="&#xfffd;" xlink:href="#font_2_3" transform="matrix(8.1882,0,0,-8.4,81.2589,112.21)"/>
<use data-text="&#xfffd;" xlink:href="#font_2_2" transform="matrix(8.1882,0,0,-8.4,86.42566,112.21)"/>
<use data-text="&#xfffd;" xlink:href="#font_2_1" transform="matrix(8.1882,0,0,-8.4,92.1574,112.21)"/>
<use data-text="&#xfffd;" xlink:href="#font_2_8" transform="matrix(8.1882,0,0,-8.4,98.21667,112.21)"/>
<use data-text="&#xfffd;" xlink:href="#font_2_9" transform="matrix(8.1882,0,0,-8.4,103.81003,112.21)"/>
<use data-text="&#xfffd;" xlink:href="#font_2_9" transform="matrix(8.1882,0,0,-8.4,108.567378,112.21)"/>
</svg>
